<mxfile host="app.diagrams.net" agent="Mozilla/5.0 (Windows NT 10.0; Win64; x64) AppleWebKit/537.36 (KHTML, like Gecko) Chrome/136.0.0.0 Safari/537.36 Edg/136.0.0.0" version="26.3.0">
  <diagram name="Página-1" id="vtjbnCUTs4U0EWswsNH1">
    <mxGraphModel dx="2009" dy="670" grid="1" gridSize="10" guides="1" tooltips="1" connect="1" arrows="1" fold="1" page="1" pageScale="1" pageWidth="827" pageHeight="1169" math="0" shadow="0">
      <root>
        <mxCell id="0" />
        <mxCell id="1" parent="0" />
        <mxCell id="nEr6PN9qnxhjv3GAqXiW-72" value="" style="whiteSpace=wrap;html=1;aspect=fixed;" vertex="1" parent="1">
          <mxGeometry x="-380" y="50" width="1670" height="1670" as="geometry" />
        </mxCell>
        <mxCell id="nEr6PN9qnxhjv3GAqXiW-1" value="&amp;lt;&amp;lt;Serviço Bloquear Aplicativo(s)&amp;gt;&amp;gt;&amp;nbsp;" style="swimlane;fontStyle=0;childLayout=stackLayout;horizontal=1;startSize=30;fillColor=none;horizontalStack=0;resizeParent=1;resizeParentMax=0;resizeLast=0;collapsible=1;marginBottom=0;whiteSpace=wrap;html=1;" vertex="1" parent="1">
          <mxGeometry x="90" y="80" width="310" height="160" as="geometry" />
        </mxCell>
        <mxCell id="nEr6PN9qnxhjv3GAqXiW-2" value="+ Mostrar tela de Bloqueio de apps" style="text;strokeColor=none;fillColor=none;align=left;verticalAlign=top;spacingLeft=4;spacingRight=4;overflow=hidden;rotatable=0;points=[[0,0.5],[1,0.5]];portConstraint=eastwest;whiteSpace=wrap;html=1;" vertex="1" parent="nEr6PN9qnxhjv3GAqXiW-1">
          <mxGeometry y="30" width="310" height="26" as="geometry" />
        </mxCell>
        <mxCell id="nEr6PN9qnxhjv3GAqXiW-3" value="+&amp;nbsp;Listar apps disponíveis para bloqueio&amp;nbsp;" style="text;strokeColor=none;fillColor=none;align=left;verticalAlign=top;spacingLeft=4;spacingRight=4;overflow=hidden;rotatable=0;points=[[0,0.5],[1,0.5]];portConstraint=eastwest;whiteSpace=wrap;html=1;" vertex="1" parent="nEr6PN9qnxhjv3GAqXiW-1">
          <mxGeometry y="56" width="310" height="26" as="geometry" />
        </mxCell>
        <mxCell id="nEr6PN9qnxhjv3GAqXiW-4" value="+&amp;nbsp;Salvar escolha dos apps selecionados para bloqueio" style="text;strokeColor=none;fillColor=none;align=left;verticalAlign=top;spacingLeft=4;spacingRight=4;overflow=hidden;rotatable=0;points=[[0,0.5],[1,0.5]];portConstraint=eastwest;whiteSpace=wrap;html=1;" vertex="1" parent="nEr6PN9qnxhjv3GAqXiW-1">
          <mxGeometry y="82" width="310" height="26" as="geometry" />
        </mxCell>
        <mxCell id="nEr6PN9qnxhjv3GAqXiW-5" value="+&amp;nbsp;Salvar o tempo de bloqueio" style="text;strokeColor=none;fillColor=none;align=left;verticalAlign=top;spacingLeft=4;spacingRight=4;overflow=hidden;rotatable=0;points=[[0,0.5],[1,0.5]];portConstraint=eastwest;whiteSpace=wrap;html=1;" vertex="1" parent="nEr6PN9qnxhjv3GAqXiW-1">
          <mxGeometry y="108" width="310" height="26" as="geometry" />
        </mxCell>
        <mxCell id="nEr6PN9qnxhjv3GAqXiW-6" value="+&amp;nbsp;Bloquear o app&amp;nbsp;" style="text;strokeColor=none;fillColor=none;align=left;verticalAlign=top;spacingLeft=4;spacingRight=4;overflow=hidden;rotatable=0;points=[[0,0.5],[1,0.5]];portConstraint=eastwest;whiteSpace=wrap;html=1;" vertex="1" parent="nEr6PN9qnxhjv3GAqXiW-1">
          <mxGeometry y="134" width="310" height="26" as="geometry" />
        </mxCell>
        <mxCell id="nEr6PN9qnxhjv3GAqXiW-7" value="&amp;lt;&amp;lt;Serviço Limitar Aplicativo(s)&amp;gt;&amp;gt;&amp;nbsp;" style="swimlane;fontStyle=0;childLayout=stackLayout;horizontal=1;startSize=30;fillColor=none;horizontalStack=0;resizeParent=1;resizeParentMax=0;resizeLast=0;collapsible=1;marginBottom=0;whiteSpace=wrap;html=1;" vertex="1" parent="1">
          <mxGeometry x="90" y="340" width="310" height="160" as="geometry" />
        </mxCell>
        <mxCell id="nEr6PN9qnxhjv3GAqXiW-8" value="+ Mostrar tela de limitação de apps" style="text;strokeColor=none;fillColor=none;align=left;verticalAlign=top;spacingLeft=4;spacingRight=4;overflow=hidden;rotatable=0;points=[[0,0.5],[1,0.5]];portConstraint=eastwest;whiteSpace=wrap;html=1;" vertex="1" parent="nEr6PN9qnxhjv3GAqXiW-7">
          <mxGeometry y="30" width="310" height="26" as="geometry" />
        </mxCell>
        <mxCell id="nEr6PN9qnxhjv3GAqXiW-9" value="+ Listar apps disponíveis para limitação&amp;nbsp;" style="text;strokeColor=none;fillColor=none;align=left;verticalAlign=top;spacingLeft=4;spacingRight=4;overflow=hidden;rotatable=0;points=[[0,0.5],[1,0.5]];portConstraint=eastwest;whiteSpace=wrap;html=1;" vertex="1" parent="nEr6PN9qnxhjv3GAqXiW-7">
          <mxGeometry y="56" width="310" height="26" as="geometry" />
        </mxCell>
        <mxCell id="nEr6PN9qnxhjv3GAqXiW-10" value="+ Salvar escolha dos apps selecionados para limitação" style="text;strokeColor=none;fillColor=none;align=left;verticalAlign=top;spacingLeft=4;spacingRight=4;overflow=hidden;rotatable=0;points=[[0,0.5],[1,0.5]];portConstraint=eastwest;whiteSpace=wrap;html=1;" vertex="1" parent="nEr6PN9qnxhjv3GAqXiW-7">
          <mxGeometry y="82" width="310" height="26" as="geometry" />
        </mxCell>
        <mxCell id="nEr6PN9qnxhjv3GAqXiW-11" value="+ Salvar tempo de uso diário do app" style="text;strokeColor=none;fillColor=none;align=left;verticalAlign=top;spacingLeft=4;spacingRight=4;overflow=hidden;rotatable=0;points=[[0,0.5],[1,0.5]];portConstraint=eastwest;whiteSpace=wrap;html=1;" vertex="1" parent="nEr6PN9qnxhjv3GAqXiW-7">
          <mxGeometry y="108" width="310" height="26" as="geometry" />
        </mxCell>
        <mxCell id="nEr6PN9qnxhjv3GAqXiW-12" value="+ Limitar o app" style="text;strokeColor=none;fillColor=none;align=left;verticalAlign=top;spacingLeft=4;spacingRight=4;overflow=hidden;rotatable=0;points=[[0,0.5],[1,0.5]];portConstraint=eastwest;whiteSpace=wrap;html=1;" vertex="1" parent="nEr6PN9qnxhjv3GAqXiW-7">
          <mxGeometry y="134" width="310" height="26" as="geometry" />
        </mxCell>
        <mxCell id="nEr6PN9qnxhjv3GAqXiW-13" value="&amp;lt;&amp;lt;Serviço Visualizar Relatórios de Uso&amp;gt;&amp;gt;&amp;nbsp;" style="swimlane;fontStyle=0;childLayout=stackLayout;horizontal=1;startSize=30;fillColor=none;horizontalStack=0;resizeParent=1;resizeParentMax=0;resizeLast=0;collapsible=1;marginBottom=0;whiteSpace=wrap;html=1;" vertex="1" parent="1">
          <mxGeometry x="70" y="640" width="310" height="150" as="geometry" />
        </mxCell>
        <mxCell id="nEr6PN9qnxhjv3GAqXiW-14" value="+ Mostrar tela de relatórios de uso&amp;nbsp; &amp;nbsp;" style="text;strokeColor=none;fillColor=none;align=left;verticalAlign=top;spacingLeft=4;spacingRight=4;overflow=hidden;rotatable=0;points=[[0,0.5],[1,0.5]];portConstraint=eastwest;whiteSpace=wrap;html=1;" vertex="1" parent="nEr6PN9qnxhjv3GAqXiW-13">
          <mxGeometry y="30" width="310" height="26" as="geometry" />
        </mxCell>
        <mxCell id="nEr6PN9qnxhjv3GAqXiW-15" value="+ Listar apps que já foram usados&amp;nbsp;" style="text;strokeColor=none;fillColor=none;align=left;verticalAlign=top;spacingLeft=4;spacingRight=4;overflow=hidden;rotatable=0;points=[[0,0.5],[1,0.5]];portConstraint=eastwest;whiteSpace=wrap;html=1;" vertex="1" parent="nEr6PN9qnxhjv3GAqXiW-13">
          <mxGeometry y="56" width="310" height="26" as="geometry" />
        </mxCell>
        <mxCell id="nEr6PN9qnxhjv3GAqXiW-16" value="+ Buscar dados de tempo de uso dos apps listados" style="text;strokeColor=none;fillColor=none;align=left;verticalAlign=top;spacingLeft=4;spacingRight=4;overflow=hidden;rotatable=0;points=[[0,0.5],[1,0.5]];portConstraint=eastwest;whiteSpace=wrap;html=1;" vertex="1" parent="nEr6PN9qnxhjv3GAqXiW-13">
          <mxGeometry y="82" width="310" height="26" as="geometry" />
        </mxCell>
        <mxCell id="nEr6PN9qnxhjv3GAqXiW-17" value="+ Disponibilizar e enviar relatórios ao usuário na aba destinada" style="text;strokeColor=none;fillColor=none;align=left;verticalAlign=top;spacingLeft=4;spacingRight=4;overflow=hidden;rotatable=0;points=[[0,0.5],[1,0.5]];portConstraint=eastwest;whiteSpace=wrap;html=1;" vertex="1" parent="nEr6PN9qnxhjv3GAqXiW-13">
          <mxGeometry y="108" width="310" height="42" as="geometry" />
        </mxCell>
        <mxCell id="nEr6PN9qnxhjv3GAqXiW-18" value="&amp;lt;&amp;lt;Serviço Ativar Modo de Emergência&amp;gt;&amp;gt;&amp;nbsp;" style="swimlane;fontStyle=0;childLayout=stackLayout;horizontal=1;startSize=30;fillColor=none;horizontalStack=0;resizeParent=1;resizeParentMax=0;resizeLast=0;collapsible=1;marginBottom=0;whiteSpace=wrap;html=1;" vertex="1" parent="1">
          <mxGeometry x="60" y="1169" width="310" height="100" as="geometry" />
        </mxCell>
        <mxCell id="nEr6PN9qnxhjv3GAqXiW-19" value="+ Enviar comando para ativar modo de emergência" style="text;strokeColor=none;fillColor=none;align=left;verticalAlign=top;spacingLeft=4;spacingRight=4;overflow=hidden;rotatable=0;points=[[0,0.5],[1,0.5]];portConstraint=eastwest;whiteSpace=wrap;html=1;" vertex="1" parent="nEr6PN9qnxhjv3GAqXiW-18">
          <mxGeometry y="30" width="310" height="26" as="geometry" />
        </mxCell>
        <mxCell id="nEr6PN9qnxhjv3GAqXiW-20" value="+ Desativar todas as restrições configuradas no Phonout" style="text;strokeColor=none;fillColor=none;align=left;verticalAlign=top;spacingLeft=4;spacingRight=4;overflow=hidden;rotatable=0;points=[[0,0.5],[1,0.5]];portConstraint=eastwest;whiteSpace=wrap;html=1;" vertex="1" parent="nEr6PN9qnxhjv3GAqXiW-18">
          <mxGeometry y="56" width="310" height="44" as="geometry" />
        </mxCell>
        <mxCell id="nEr6PN9qnxhjv3GAqXiW-21" value="&amp;lt;&amp;lt;Serviço Ativar Modo de Controle Parental&amp;gt;&amp;nbsp;" style="swimlane;fontStyle=0;childLayout=stackLayout;horizontal=1;startSize=30;fillColor=none;horizontalStack=0;resizeParent=1;resizeParentMax=0;resizeLast=0;collapsible=1;marginBottom=0;whiteSpace=wrap;html=1;" vertex="1" parent="1">
          <mxGeometry x="70" y="1440" width="310" height="134" as="geometry" />
        </mxCell>
        <mxCell id="nEr6PN9qnxhjv3GAqXiW-22" value="+ Mostrar campo para criar a senha" style="text;strokeColor=none;fillColor=none;align=left;verticalAlign=top;spacingLeft=4;spacingRight=4;overflow=hidden;rotatable=0;points=[[0,0.5],[1,0.5]];portConstraint=eastwest;whiteSpace=wrap;html=1;" vertex="1" parent="nEr6PN9qnxhjv3GAqXiW-21">
          <mxGeometry y="30" width="310" height="26" as="geometry" />
        </mxCell>
        <mxCell id="nEr6PN9qnxhjv3GAqXiW-23" value="+ Salvar senha do admin&amp;nbsp;" style="text;strokeColor=none;fillColor=none;align=left;verticalAlign=top;spacingLeft=4;spacingRight=4;overflow=hidden;rotatable=0;points=[[0,0.5],[1,0.5]];portConstraint=eastwest;whiteSpace=wrap;html=1;" vertex="1" parent="nEr6PN9qnxhjv3GAqXiW-21">
          <mxGeometry y="56" width="310" height="26" as="geometry" />
        </mxCell>
        <mxCell id="nEr6PN9qnxhjv3GAqXiW-24" value="+ Salvar escolha dos apps selecionados pelo admin" style="text;strokeColor=none;fillColor=none;align=left;verticalAlign=top;spacingLeft=4;spacingRight=4;overflow=hidden;rotatable=0;points=[[0,0.5],[1,0.5]];portConstraint=eastwest;whiteSpace=wrap;html=1;" vertex="1" parent="nEr6PN9qnxhjv3GAqXiW-21">
          <mxGeometry y="82" width="310" height="26" as="geometry" />
        </mxCell>
        <mxCell id="nEr6PN9qnxhjv3GAqXiW-25" value="+ Bloquear aplicativos com senha de admin" style="text;strokeColor=none;fillColor=none;align=left;verticalAlign=top;spacingLeft=4;spacingRight=4;overflow=hidden;rotatable=0;points=[[0,0.5],[1,0.5]];portConstraint=eastwest;whiteSpace=wrap;html=1;" vertex="1" parent="nEr6PN9qnxhjv3GAqXiW-21">
          <mxGeometry y="108" width="310" height="26" as="geometry" />
        </mxCell>
        <mxCell id="nEr6PN9qnxhjv3GAqXiW-26" value="&amp;lt;&amp;lt;Serviço Notificar tempo de uso de app&amp;gt;&amp;gt;&amp;nbsp;" style="swimlane;fontStyle=0;childLayout=stackLayout;horizontal=1;startSize=30;fillColor=none;horizontalStack=0;resizeParent=1;resizeParentMax=0;resizeLast=0;collapsible=1;marginBottom=0;whiteSpace=wrap;html=1;" vertex="1" parent="1">
          <mxGeometry x="70" y="940" width="310" height="82" as="geometry" />
        </mxCell>
        <mxCell id="nEr6PN9qnxhjv3GAqXiW-27" value="+ Calcular tempo de uso do app limitado em tempo real" style="text;strokeColor=none;fillColor=none;align=left;verticalAlign=top;spacingLeft=4;spacingRight=4;overflow=hidden;rotatable=0;points=[[0,0.5],[1,0.5]];portConstraint=eastwest;whiteSpace=wrap;html=1;" vertex="1" parent="nEr6PN9qnxhjv3GAqXiW-26">
          <mxGeometry y="30" width="310" height="26" as="geometry" />
        </mxCell>
        <mxCell id="nEr6PN9qnxhjv3GAqXiW-28" value="+ Enviar comando ao SO do celular para gerar alerta" style="text;strokeColor=none;fillColor=none;align=left;verticalAlign=top;spacingLeft=4;spacingRight=4;overflow=hidden;rotatable=0;points=[[0,0.5],[1,0.5]];portConstraint=eastwest;whiteSpace=wrap;html=1;" vertex="1" parent="nEr6PN9qnxhjv3GAqXiW-26">
          <mxGeometry y="56" width="310" height="26" as="geometry" />
        </mxCell>
        <mxCell id="nEr6PN9qnxhjv3GAqXiW-35" value="&lt;p style=&quot;margin:0px;margin-top:4px;text-align:center;&quot;&gt;&lt;i&gt;&amp;lt;&amp;lt;Interface Serviço&amp;gt;&amp;gt;&lt;/i&gt;&lt;br&gt;&lt;b&gt;Bloquear Aplicativo(s)&lt;/b&gt;&lt;/p&gt;&lt;hr size=&quot;1&quot; style=&quot;border-style:solid;&quot;&gt;&lt;p style=&quot;margin:0px;margin-left:4px;&quot;&gt;+&amp;nbsp;Listar apps disponíveis para bloqueio&lt;/p&gt;&lt;p style=&quot;margin:0px;margin-left:4px;&quot;&gt;&lt;b&gt;Output: &lt;/b&gt;AplicativoDisponivel: String&lt;/p&gt;&lt;hr size=&quot;1&quot; style=&quot;border-style:solid;&quot;&gt;&lt;p style=&quot;margin:0px;margin-left:4px;&quot;&gt;+&amp;nbsp;Salvar escolha dos apps selecionados para bloqueio&lt;/p&gt;&lt;p style=&quot;margin:0px;margin-left:4px;&quot;&gt;&lt;b&gt;Input: &lt;/b&gt;AplicativoSelecionado: String&lt;/p&gt;&lt;hr&gt;+&amp;nbsp;Salvar o tempo de bloqueio&lt;div&gt;&lt;b&gt;Input: &lt;/b&gt;TempoBloqueio: int&lt;/div&gt;&lt;div&gt;&lt;hr&gt;+&amp;nbsp;&lt;span style=&quot;background-color: transparent; color: light-dark(rgb(0, 0, 0), rgb(255, 255, 255));&quot;&gt;Bloquear o app&lt;/span&gt;&lt;/div&gt;&lt;div&gt;&lt;b&gt;Output: &lt;/b&gt;StatusBloqueio: boolean&lt;/div&gt;" style="verticalAlign=top;align=left;overflow=fill;html=1;whiteSpace=wrap;" vertex="1" parent="1">
          <mxGeometry x="470" y="75" width="330" height="215" as="geometry" />
        </mxCell>
        <mxCell id="nEr6PN9qnxhjv3GAqXiW-66" value="&lt;p style=&quot;margin:0px;margin-top:4px;text-align:center;&quot;&gt;&lt;i&gt;&amp;lt;&amp;lt;Interface Serviço&amp;gt;&amp;gt;&lt;/i&gt;&lt;br&gt;&lt;b&gt;Limitar Aplicativo(s)&lt;/b&gt;&lt;/p&gt;&lt;hr size=&quot;1&quot; style=&quot;border-style:solid;&quot;&gt;&lt;p style=&quot;margin:0px;margin-left:4px;&quot;&gt;+&amp;nbsp;Listar apps disponíveis para limitação&lt;/p&gt;&lt;p style=&quot;margin:0px;margin-left:4px;&quot;&gt;&lt;b&gt;Output: &lt;/b&gt;AplicativoDisponivel: String&lt;/p&gt;&lt;hr size=&quot;1&quot; style=&quot;border-style:solid;&quot;&gt;&lt;p style=&quot;margin:0px;margin-left:4px;&quot;&gt;+&amp;nbsp;Salvar escolha dos apps selecionados para limitação&lt;/p&gt;&lt;p style=&quot;margin:0px;margin-left:4px;&quot;&gt;&lt;b&gt;Input: &lt;/b&gt;AplicativoSelecionado: String&lt;/p&gt;&lt;hr&gt;&lt;div&gt;+ Salvar tempo de uso diário do app&lt;/div&gt;&lt;div&gt;&lt;b&gt;Input: &lt;/b&gt;TempoUsoLimite: int&lt;/div&gt;&lt;div&gt;&lt;hr&gt;+ Limitar&lt;span style=&quot;background-color: transparent; color: light-dark(rgb(0, 0, 0), rgb(255, 255, 255));&quot;&gt;&amp;nbsp;o app&lt;/span&gt;&lt;/div&gt;&lt;div&gt;&lt;b&gt;Output: &lt;/b&gt;StatusLimite: boolean&lt;/div&gt;" style="verticalAlign=top;align=left;overflow=fill;html=1;whiteSpace=wrap;" vertex="1" parent="1">
          <mxGeometry x="470" y="340" width="330" height="215" as="geometry" />
        </mxCell>
        <mxCell id="nEr6PN9qnxhjv3GAqXiW-67" value="&lt;p style=&quot;margin:0px;margin-top:4px;text-align:center;&quot;&gt;&lt;i&gt;&amp;lt;&amp;lt;Interface Serviço&amp;gt;&amp;gt;&lt;/i&gt;&lt;br&gt;&lt;b&gt;Visualizar Relatórios de Uso&lt;/b&gt;&lt;/p&gt;&lt;hr size=&quot;1&quot; style=&quot;border-style:solid;&quot;&gt;&lt;p style=&quot;margin:0px;margin-left:4px;&quot;&gt;+ Listar apps que já foram usados&amp;nbsp;&lt;/p&gt;&lt;p style=&quot;margin:0px;margin-left:4px;&quot;&gt;&lt;b&gt;Output: &lt;/b&gt;AplicativoAberto: String&lt;/p&gt;&lt;hr size=&quot;1&quot; style=&quot;border-style:solid;&quot;&gt;&lt;p style=&quot;margin:0px;margin-left:4px;&quot;&gt;&lt;span style=&quot;background-color: transparent; color: light-dark(rgb(0, 0, 0), rgb(255, 255, 255));&quot;&gt;+ Buscar dados de tempo de uso dos apps listados&lt;/span&gt;&lt;/p&gt;&lt;p style=&quot;margin:0px;margin-left:4px;&quot;&gt;&lt;b style=&quot;background-color: transparent; color: light-dark(rgb(0, 0, 0), rgb(255, 255, 255));&quot;&gt;Input: &lt;/b&gt;&lt;span style=&quot;background-color: transparent; color: light-dark(rgb(0, 0, 0), rgb(255, 255, 255));&quot;&gt;AplicativoSelecionado: String&lt;/span&gt;&lt;/p&gt;&lt;hr&gt;&lt;div&gt;&lt;/div&gt;&lt;div&gt;&lt;span style=&quot;background-color: transparent; color: light-dark(rgb(0, 0, 0), rgb(255, 255, 255));&quot;&gt;+ Disponibilizar e enviar relatórios ao usuário na aba destinada&lt;/span&gt;&lt;/div&gt;&lt;div&gt;&lt;b style=&quot;background-color: transparent; color: light-dark(rgb(0, 0, 0), rgb(255, 255, 255));&quot;&gt;Output: &lt;/b&gt;&lt;span style=&quot;background-color: transparent; color: light-dark(rgb(0, 0, 0), rgb(255, 255, 255));&quot;&gt;TempoUso&lt;/span&gt;&lt;span style=&quot;background-color: transparent; color: light-dark(rgb(0, 0, 0), rgb(255, 255, 255));&quot;&gt;: int&lt;/span&gt;&lt;/div&gt;" style="verticalAlign=top;align=left;overflow=fill;html=1;whiteSpace=wrap;" vertex="1" parent="1">
          <mxGeometry x="460" y="640" width="330" height="180" as="geometry" />
        </mxCell>
        <mxCell id="nEr6PN9qnxhjv3GAqXiW-68" value="&lt;p style=&quot;margin:0px;margin-top:4px;text-align:center;&quot;&gt;&lt;i&gt;&amp;lt;&amp;lt;Interface Serviço&amp;gt;&amp;gt;&lt;/i&gt;&lt;br&gt;&lt;b&gt;Notificar tempo de uso de app&lt;/b&gt;&lt;/p&gt;&lt;hr size=&quot;1&quot; style=&quot;border-style:solid;&quot;&gt;&lt;p style=&quot;margin:0px;margin-left:4px;&quot;&gt;&lt;span style=&quot;background-color: transparent; color: light-dark(rgb(0, 0, 0), rgb(255, 255, 255));&quot;&gt;+ Calcular tempo de uso do app limitado em tempo real&lt;/span&gt;&lt;/p&gt;&lt;p style=&quot;margin:0px;margin-left:4px;&quot;&gt;&lt;b&gt;Input: &lt;/b&gt;AplicativoAberto: String&lt;/p&gt;&lt;p style=&quot;margin:0px;margin-left:4px;&quot;&gt;&lt;b style=&quot;background-color: transparent; color: light-dark(rgb(0, 0, 0), rgb(255, 255, 255));&quot;&gt;Output:&amp;nbsp;&lt;/b&gt;&lt;span style=&quot;background-color: transparent; color: light-dark(rgb(0, 0, 0), rgb(255, 255, 255));&quot;&gt;TempoUso: int&lt;/span&gt;&lt;/p&gt;&lt;hr size=&quot;1&quot; style=&quot;border-style:solid;&quot;&gt;&lt;p style=&quot;margin:0px;margin-left:4px;&quot;&gt;&lt;span style=&quot;background-color: transparent; color: light-dark(rgb(0, 0, 0), rgb(255, 255, 255));&quot;&gt;+ Enviar comando ao SO do celular para gerar alerta&lt;/span&gt;&lt;/p&gt;&lt;p style=&quot;margin:0px;margin-left:4px;&quot;&gt;&lt;b style=&quot;background-color: transparent; color: light-dark(rgb(0, 0, 0), rgb(255, 255, 255));&quot;&gt;Input:&amp;nbsp;&lt;/b&gt;&lt;span style=&quot;background-color: transparent; color: light-dark(rgb(0, 0, 0), rgb(255, 255, 255));&quot;&gt;TempoUsoLimite: int&lt;/span&gt;&lt;/p&gt;&lt;p style=&quot;margin:0px;margin-left:4px;&quot;&gt;&lt;span style=&quot;background-color: transparent; color: light-dark(rgb(0, 0, 0), rgb(255, 255, 255));&quot;&gt;&lt;b&gt;Output:&amp;nbsp;&lt;/b&gt;&lt;/span&gt;&lt;span style=&quot;background-color: transparent; color: light-dark(rgb(0, 0, 0), rgb(255, 255, 255));&quot;&gt;Alerta: string&lt;/span&gt;&lt;/p&gt;&lt;div&gt;&lt;br&gt;&lt;/div&gt;" style="verticalAlign=top;align=left;overflow=fill;html=1;whiteSpace=wrap;" vertex="1" parent="1">
          <mxGeometry x="460" y="930" width="330" height="150" as="geometry" />
        </mxCell>
        <mxCell id="nEr6PN9qnxhjv3GAqXiW-70" value="&lt;p style=&quot;margin:0px;margin-top:4px;text-align:center;&quot;&gt;&lt;i&gt;&amp;lt;&amp;lt;Interface Serviço&amp;gt;&amp;gt;&lt;/i&gt;&lt;br&gt;&lt;b&gt;Ativar Modo de Emergência&lt;/b&gt;&lt;/p&gt;&lt;hr size=&quot;1&quot; style=&quot;border-style:solid;&quot;&gt;&lt;p style=&quot;margin:0px;margin-left:4px;&quot;&gt;&lt;span style=&quot;background-color: transparent; color: light-dark(rgb(0, 0, 0), rgb(255, 255, 255));&quot;&gt;+ Enviar comando para ativar modo de emergência&lt;/span&gt;&lt;/p&gt;&lt;p style=&quot;margin:0px;margin-left:4px;&quot;&gt;&lt;span style=&quot;background-color: transparent; color: light-dark(rgb(0, 0, 0), rgb(255, 255, 255));&quot;&gt;&lt;b&gt;Input: &lt;/b&gt;ModoEmergencia: Dados Ativar Modo Emergencia&lt;/span&gt;&lt;/p&gt;&lt;hr size=&quot;1&quot; style=&quot;border-style:solid;&quot;&gt;&lt;p style=&quot;margin:0px;margin-left:4px;&quot;&gt;&lt;span style=&quot;background-color: transparent; color: light-dark(rgb(0, 0, 0), rgb(255, 255, 255));&quot;&gt;+ Desativar todas as restrições configuradas no Phonout&lt;/span&gt;&lt;/p&gt;&lt;p style=&quot;margin:0px;margin-left:4px;&quot;&gt;&lt;b style=&quot;background-color: transparent; color: light-dark(rgb(0, 0, 0), rgb(255, 255, 255));&quot;&gt;Input:&amp;nbsp;&lt;/b&gt;&lt;span style=&quot;background-color: transparent; color: light-dark(rgb(0, 0, 0), rgb(255, 255, 255));&quot;&gt;AplicativoDisponivel: String&lt;/span&gt;&lt;/p&gt;&lt;p style=&quot;margin:0px;margin-left:4px;&quot;&gt;&lt;span style=&quot;background-color: transparent; color: light-dark(rgb(0, 0, 0), rgb(255, 255, 255));&quot;&gt;&lt;b&gt;Output:&amp;nbsp;&lt;/b&gt;StatusBloqueio: boolean&lt;/span&gt;&lt;/p&gt;&lt;p style=&quot;margin:0px;margin-left:4px;&quot;&gt;&lt;span style=&quot;background-color: transparent; color: light-dark(rgb(0, 0, 0), rgb(255, 255, 255));&quot;&gt;Output:&lt;/span&gt;&lt;/p&gt;&lt;p style=&quot;margin:0px;margin-left:4px;&quot;&gt;&lt;br&gt;&lt;/p&gt;&lt;p style=&quot;margin:0px;margin-left:4px;&quot;&gt;&lt;span style=&quot;background-color: transparent; color: light-dark(rgb(0, 0, 0), rgb(255, 255, 255));&quot;&gt;&lt;br&gt;&lt;/span&gt;&lt;/p&gt;&lt;div&gt;&lt;br&gt;&lt;/div&gt;" style="verticalAlign=top;align=left;overflow=fill;html=1;whiteSpace=wrap;" vertex="1" parent="1">
          <mxGeometry x="460" y="1169" width="330" height="131" as="geometry" />
        </mxCell>
        <mxCell id="nEr6PN9qnxhjv3GAqXiW-71" value="&lt;p style=&quot;margin:0px;margin-top:4px;text-align:center;&quot;&gt;&lt;i&gt;&amp;lt;&amp;lt;Interface Serviço&amp;gt;&amp;gt;&lt;/i&gt;&lt;br&gt;&lt;b&gt;Ativar Modo de Controle Parental&lt;/b&gt;&lt;/p&gt;&lt;hr size=&quot;1&quot; style=&quot;border-style:solid;&quot;&gt;&lt;p style=&quot;margin:0px;margin-left:4px;&quot;&gt;&lt;span style=&quot;background-color: transparent; color: light-dark(rgb(0, 0, 0), rgb(255, 255, 255));&quot;&gt;+ Salvar senha do admin&amp;nbsp;&lt;/span&gt;&lt;/p&gt;&lt;p style=&quot;margin:0px;margin-left:4px;&quot;&gt;&lt;b style=&quot;background-color: transparent; color: light-dark(rgb(0, 0, 0), rgb(255, 255, 255));&quot;&gt;Input:&amp;nbsp;&lt;/b&gt;&lt;span style=&quot;background-color: transparent; color: light-dark(rgb(0, 0, 0), rgb(255, 255, 255));&quot;&gt;Senha: Dados Ativar Modo de Controle Parental&lt;/span&gt;&lt;/p&gt;&lt;hr&gt;&lt;p style=&quot;margin:0px;margin-left:4px;&quot;&gt;&lt;span style=&quot;background-color: transparent; color: light-dark(rgb(0, 0, 0), rgb(255, 255, 255));&quot;&gt;+ Salvar escolha dos apps selecionados pelo admin&lt;/span&gt;&lt;/p&gt;&lt;p style=&quot;margin:0px;margin-left:4px;&quot;&gt;&lt;b style=&quot;background-color: transparent; color: light-dark(rgb(0, 0, 0), rgb(255, 255, 255));&quot;&gt;Input: &lt;/b&gt;&lt;span style=&quot;background-color: transparent; color: light-dark(rgb(0, 0, 0), rgb(255, 255, 255));&quot;&gt;AplicativoSelecionado: String&lt;/span&gt;&lt;/p&gt;&lt;hr&gt;&lt;div&gt;&lt;span style=&quot;background-color: transparent; color: light-dark(rgb(0, 0, 0), rgb(255, 255, 255));&quot;&gt;+ Bloquear aplicativos com senha de admin&lt;/span&gt;&lt;/div&gt;&lt;div&gt;&lt;span style=&quot;background-color: transparent; color: light-dark(rgb(0, 0, 0), rgb(255, 255, 255));&quot;&gt;&lt;b&gt;Output&lt;/b&gt;&lt;/span&gt;&lt;b style=&quot;background-color: transparent; color: light-dark(rgb(0, 0, 0), rgb(255, 255, 255));&quot;&gt;:&amp;nbsp;&lt;/b&gt;&lt;span style=&quot;background-color: transparent; color: light-dark(rgb(0, 0, 0), rgb(255, 255, 255));&quot;&gt;StatusBloqueio: boolean&lt;/span&gt;&lt;/div&gt;&lt;div&gt;&lt;br&gt;&lt;/div&gt;" style="verticalAlign=top;align=left;overflow=fill;html=1;whiteSpace=wrap;" vertex="1" parent="1">
          <mxGeometry x="460" y="1440" width="330" height="170" as="geometry" />
        </mxCell>
      </root>
    </mxGraphModel>
  </diagram>
</mxfile>
